<!DOCTYPE svg PUBLIC "-//W3C//DTD SVG 20010904//EN" "http://www.w3.org/TR/2001/REC-SVG-20010904/DTD/svg10.dtd">
<svg version="1.0" xmlns="http://www.w3.org/2000/svg" width="238px" height="238px" viewBox="0 0 2380 2380" preserveAspectRatio="xMidYMid meet">
<g id="layer1" fill="#ff5c5c" stroke="none">
 <path d="M424 2341 c-47 -29 -101 -98 -113 -146 -18 -71 -15 -1768 3 -1827 31 -105 124 -172 232 -166 56 3 59 4 57 28 -1 14 -41 403 -88 865 -47 462 -86 867 -87 900 0 92 35 161 105 204 32 20 207 46 800 118 97 12 137 21 137 30 0 10 -98 13 -507 13 -478 0 -510 -1 -539 -19z"/>
 <path d="M1180 2206 c-307 -41 -486 -68 -506 -79 -16 -8 -48 -35 -71 -59 -74 -81 -75 -35 21 -988 97 -950 92 -913 116 -960 49 -94 120 -123 275 -108 242 22 923 112 958 125 51 21 104 86 123 151 15 51 13 77 -51 710 -109 1084 -112 1107 -134 1150 -22 43 -80 98 -118 113 -43 16 -127 8 -613 -55z"/>
 </g>

</svg>